<?xml version="1.0" encoding="UTF-8"?>
<!DOCTYPE svg PUBLIC "-//W3C//DTD SVG 1.1//EN" "http://www.w3.org/Graphics/SVG/1.1/DTD/svg11.dtd">
<svg xmlns="http://www.w3.org/2000/svg" version="1.1" width="200px" height="200px" style="shape-rendering:geometricPrecision; text-rendering:geometricPrecision; image-rendering:optimizeQuality; fill-rule:evenodd; clip-rule:evenodd" xmlns:xlink="http://www.w3.org/1999/xlink">
<g><path style="opacity:1" fill="#04031f" d="M -0.5,-0.5 C 66.1667,-0.5 132.833,-0.5 199.5,-0.5C 199.5,66.1667 199.5,132.833 199.5,199.5C 132.833,199.5 66.1667,199.5 -0.5,199.5C -0.5,132.833 -0.5,66.1667 -0.5,-0.5 Z"/></g>
<g><path style="opacity:1" fill="#f0f1f3" d="M 29.5,8.5 C 61.1684,8.33335 92.8351,8.50002 124.5,9C 148.032,12.8433 164.532,25.6767 174,47.5C 178.191,64.0758 175.358,79.2425 165.5,93C 184.063,114.265 186.563,137.431 173,162.5C 161.836,178.17 146.669,187.337 127.5,190C 95.1667,190.667 62.8333,190.667 30.5,190C 22.2493,188.669 17.7493,183.836 17,175.5C 16.3333,124.167 16.3333,72.8333 17,21.5C 18.6823,14.6529 22.849,10.3196 29.5,8.5 Z"/></g>
<g><path style="opacity:1" fill="#02011e" d="M 67.5,52.5 C 83.5035,52.3334 99.5035,52.5001 115.5,53C 118.973,53.3194 121.806,54.8194 124,57.5C 125.555,62.3822 125.888,67.3822 125,72.5C 123.786,74.0488 122.286,75.2155 120.5,76C 114.564,77.1387 108.564,77.8054 102.5,78C 90.0341,80.9546 85.5341,88.7879 89,101.5C 89.831,106.681 92.6643,110.181 97.5,112C 104.437,113.173 111.437,113.84 118.5,114C 127.607,114.605 131.941,119.439 131.5,128.5C 132.318,135.795 129.651,141.295 123.5,145C 104.888,146.448 86.2218,146.948 67.5,146.5C 67.5,115.167 67.5,83.8333 67.5,52.5 Z"/></g>
</svg>
